<svg xmlns="http://www.w3.org/2000/svg" width="6" height="22" viewBox="0 0 6 22">
    <g transform="translate(-512.75 -83.95)">
        <circle cx="1" cy="1" r="1" transform="translate(512.75 91.95)" style="fill:#7c7c7c"/>
        <circle cx="1" cy="1" r="1" transform="translate(512.75 87.95)" style="fill:#7c7c7c"/>
        <circle cx="1" cy="1" r="1" transform="translate(512.75 83.95)" style="fill:#7c7c7c"/>
        <circle cx="1" cy="1" r="1" transform="translate(512.75 95.95)" style="fill:#7c7c7c"/>
        <circle cx="1" cy="1" r="1" transform="translate(512.75 99.95)" style="fill:#7c7c7c"/>
        <circle cx="1" cy="1" r="1" transform="translate(512.75 103.95)" style="fill:#7c7c7c"/>
        <circle cx="1" cy="1" r="1" transform="translate(516.75 91.95)" style="fill:#7c7c7c"/>
        <circle cx="1" cy="1" r="1" transform="translate(516.75 87.95)" style="fill:#7c7c7c"/>
        <circle cx="1" cy="1" r="1" transform="translate(516.75 83.95)" style="fill:#7c7c7c"/>
        <circle cx="1" cy="1" r="1" transform="translate(516.75 95.95)" style="fill:#7c7c7c"/>
        <circle cx="1" cy="1" r="1" transform="translate(516.75 99.95)" style="fill:#7c7c7c"/>
        <circle cx="1" cy="1" r="1" transform="translate(516.75 103.95)" style="fill:#7c7c7c"/>
    </g>
</svg>
