<svg data-name="8678972_file_excel_icon" xmlns="http://www.w3.org/2000/svg" width="16" height="16" viewBox="0 0 16 16">
    <path d="M0 0h16v16H0z" style="fill:none"/>
    <path style="fill:#fff" d="m1.906 1.918 8.38-1.2a.333.333 0 0 1 .381.33v13.9a.333.333 0 0 1-.38.33l-8.381-1.2a.667.667 0 0 1-.572-.656V2.578a.667.667 0 0 1 .573-.66zm.761 1.239v9.684l6.667.955V2.204zm8.667 9.51h2V3.333h-2V2h2.667a.667.667 0 0 1 .667.667v10.666a.667.667 0 0 1-.667.667h-2.667zM6.8 8l1.867 2.667h-1.6L6 9.141l-1.066 1.526h-1.6L5.2 8 3.334 5.333h1.6L6 6.857l1.067-1.524h1.6z"/>
</svg>
