<svg xmlns="http://www.w3.org/2000/svg" width="18" height="17.143" viewBox="0 0 18 17.143">
    <path d="M11.333 14.926a.638.638 0 0 1 .343.1l4.357 2.75-1.283-4.963a.641.641 0 0 1 .214-.657l3.967-3.262-5.143-.321a.645.645 0 0 1-.557-.4L11.333 3.4l-1.9 4.772a.64.64 0 0 1-.557.4l-5.143.321L7.7 12.155a.646.646 0 0 1 .214.657l-1.282 4.964 4.357-2.75a.637.637 0 0 1 .343-.1zm-4.809 4.217a1.219 1.219 0 0 1-1.181-1.519l1.224-4.736-3.79-3.115a1.215 1.215 0 0 1 .7-2.151l4.913-.306 1.81-4.548a1.221 1.221 0 0 1 2.267 0l1.81 4.548 4.912.306a1.215 1.215 0 0 1 .7 2.151L16.1 12.887l1.223 4.736a1.218 1.218 0 0 1-1.833 1.329l-4.157-2.622-4.156 2.623a1.219 1.219 0 0 1-.651.189z" transform="translate(-2.333 -2)" style="fill:#ffc400"/>
    <path d="m9.959 6.125-2.3 4.936-5.536.84L6.3 15.787l-1.041 5.356 4.7-2.941 4.909 2.941-1.149-5.881 3.656-3.362-5.223-.84z" transform="translate(-1 -5)" style="fill:#ffc400"/>
</svg>
