<svg xmlns="http://www.w3.org/2000/svg" width="42" height="42" viewBox="0 0 42 42">
    <g style="opacity:.8">
        <path d="M32.036 15.119c0-.038.007-.074.007-.111C32.043 9.481 27.089 5 20.979 5 15.7 5 11.3 8.341 10.192 12.808A8.955 8.955 0 0 0 3 21.262c0 4.836 4.334 8.756 9.681 8.756H30.66c4.583 0 8.3-3.36 8.3-7.505-.002-3.72-2.998-6.8-6.924-7.394z" transform="translate(-.291 3.581)" style="fill:none;stroke:#fe630f;stroke-linecap:round;stroke-linejoin:round;stroke-miterlimit:10;stroke-width:2px"/>
        <path transform="translate(20.687 17.285)" style="fill:none;stroke:#fe630f;stroke-linecap:round;stroke-linejoin:round;stroke-miterlimit:10;stroke-width:2px" d="M0 0v11.688"/>
        <path d="M12 16.532 17.532 11l5.532 5.532" transform="translate(3.156 4.888)" style="fill:none;stroke:#fe630f;stroke-linecap:round;stroke-linejoin:round;stroke-miterlimit:10;stroke-width:2px"/>
    </g>
</svg>
