<svg xmlns="http://www.w3.org/2000/svg" width="16" height="16" viewBox="0 0 16 16">
    <path style="fill:#fff;" d="M13.333 11.333H2.667A.667.667 0 0 1 2 10.667v-2a2 2 0 0 1 .439-1.249l2.666-3.334a2.044 2.044 0 0 1 2.762-.349l1.116.836 1.457-1.82A2 2 0 0 1 14 4v6.667a.667.667 0 0 1-.667.666zM3.333 10h9.333V4a.666.666 0 0 0-1.187-.416L9.62 5.907a.667.667 0 0 1-.921.117L7.067 4.8a.68.68 0 0 0-.921.117L3.479 8.251a.662.662 0 0 0-.146.416zm10 4H2.667a.667.667 0 1 1 0-1.333h10.666a.667.667 0 0 1 0 1.333z"/>
</svg>
