<svg xmlns="http://www.w3.org/2000/svg" width="20" height="20" viewBox="0 0 20 20">
    <g>
        <path d="M7.734 0 0 7.569v2.213h2.109L9.843 2.1z" transform="translate(3.906 7.188)" style="stroke:#303038;stroke-width:1.5px;fill:none"/>
        <g style="stroke-linecap:round;stroke:#303038;stroke-width:1.5px;fill:none">
            <path d="M1 0h2.515a1 1 0 0 1 1 1v3.506H0V1a1 1 0 0 1 1-1z" style="stroke:none" transform="rotate(45 4.732 19.644)"/>
            <path d="M1 .75h2.515a.25.25 0 0 1 .25.25v2.756h0H.75h0V1A.25.25 0 0 1 1 .75z" style="fill:none" transform="rotate(45 4.732 19.644)"/>
        </g>
    </g>
</svg>
