<svg xmlns="http://www.w3.org/2000/svg" width="20" height="20" viewBox="0 0 20 20">
    <g>
        <path d="M8204.229 6508.911h-11.539a1.691 1.691 0 0 1-1.69-1.691v-13.529a1.69 1.69 0 0 1 1.69-1.692h7.759v5.67a.3.3 0 0 0 .3.3h5.174v9.25a1.692 1.692 0 0 1-1.691 1.691z" transform="translate(-8188.461 -6490.455)" style="fill:none"/>
        <path d="M8204.229 6507.419a.2.2 0 0 0 .2-.2v-7.759h-3.681a1.793 1.793 0 0 1-1.79-1.79v-4.179h-6.267a.2.2 0 0 0-.2.2v13.528a.2.2 0 0 0 .2.2h11.539m0 1.492h-11.54a1.693 1.693 0 0 1-1.69-1.691v-13.528a1.693 1.693 0 0 1 1.69-1.691h7.759v5.671a.3.3 0 0 0 .3.3h5.173v9.251a1.692 1.692 0 0 1-1.689 1.691z" transform="translate(-8188.461 -6490.455)" style="fill:#303038"/>
    </g>
    <path d="m38.688 481.75 4.787 4.974" transform="translate(-26.761 -479.396)" style="stroke:#303038;stroke-linecap:round;stroke-width:1.5px;fill:none"/>
</svg>
