<svg xmlns="http://www.w3.org/2000/svg" width="20" height="20" viewBox="0 0 20 20">
    <path d="M1.765 9.118h4.588a.765.765 0 0 0 .765-.765V3.765A.765.765 0 0 0 6.353 3H1.765A.765.765 0 0 0 1 3.765v4.588a.765.765 0 0 0 .765.765zm.764-4.588h3.059v3.059H2.529zm14.53.765H9.412a.765.765 0 0 0 0 1.53h7.648a.765.765 0 0 0 0-1.53zm0 7.648H9.412a.765.765 0 0 0 0 1.53h7.648a.765.765 0 0 0 0-1.53zM3.25 16h.009a.765.765 0 0 0 .535-.221l3.094-3.059a.765.765 0 1 0-1.071-1.087l-2.545 2.516-.957-.994a.765.765 0 1 0-1.1 1.064l1.494 1.553A.765.765 0 0 0 3.25 16z" transform="translate(1 1)" style="fill:#303038"/>
</svg>
