<svg xmlns="http://www.w3.org/2000/svg" width="20" height="20" viewBox="0 0 20 20">
    <g transform="translate(1.819 1.221)">
        <path d="m15.369 5.228-.518-.9a1.592 1.592 0 0 0-2.171-.587h0a1.585 1.585 0 0 1-2.171-.564 1.525 1.525 0 0 1-.213-.762h0A1.592 1.592 0 0 0 8.7.778H7.658A1.585 1.585 0 0 0 6.073 2.37h0a1.592 1.592 0 0 1-1.592 1.57 1.524 1.524 0 0 1-.762-.213h0a1.592 1.592 0 0 0-2.171.587l-.556.914A1.592 1.592 0 0 0 1.571 7.4h0a1.592 1.592 0 0 1 0 2.758h0a1.585 1.585 0 0 0-.579 2.164h0l.526.907a1.592 1.592 0 0 0 2.171.617h0a1.577 1.577 0 0 1 2.164.579 1.524 1.524 0 0 1 .213.762h0a1.592 1.592 0 0 0 1.592 1.592H8.7a1.592 1.592 0 0 0 1.592-1.585h0a1.585 1.585 0 0 1 1.595-1.594 1.622 1.622 0 0 1 .762.213h0a1.592 1.592 0 0 0 2.171-.579h0l.549-.914a1.585 1.585 0 0 0-.579-2.171h0a1.585 1.585 0 0 1-.579-2.171 1.562 1.562 0 0 1 .579-.578h0a1.592 1.592 0 0 0 .579-2.164h0z" style="fill-rule:evenodd;fill:none;stroke:#303038;stroke-linecap:round;stroke-linejoin:round;stroke-width:1.5px"/>
        <circle cx="1.995" cy="1.995" r="1.995" transform="translate(6.188 6.783)" style="fill:none;stroke:#303038;stroke-linecap:round;stroke-linejoin:round;stroke-width:1.5px"/>
    </g>
</svg>
