<svg xmlns="http://www.w3.org/2000/svg" width="20" height="20" viewBox="0 0 20 20">
    <path d="M16 15.332a.667.667 0 0 1-.667.667H.666a.667.667 0 0 1 0-1.333h14.666a.667.667 0 0 1 .668.666zM.193 5.7A1.629 1.629 0 0 1 .3 3.99a3.144 3.144 0 0 1 1.112-1l5-2.6a3.449 3.449 0 0 1 3.182 0l5 2.6a3.144 3.144 0 0 1 1.112 1A1.629 1.629 0 0 1 15.8 5.7a1.809 1.809 0 0 1-1.611.963H14V12h.667a.667.667 0 1 1 0 1.333H1.333a.667.667 0 1 1 0-1.333H2V6.666h-.2A1.809 1.809 0 0 1 .193 5.7zm3.14 6.3h2V6.666h-2zm3.333-5.334V12h2.666V6.666zm6 0h-2V12h2zM1.375 5.083a.478.478 0 0 0 .43.25h12.388a.478.478 0 0 0 .43-.25.3.3 0 0 0-.016-.333 1.8 1.8 0 0 0-.633-.576l-5-2.6a2.117 2.117 0 0 0-1.951 0l-5 2.6a1.808 1.808 0 0 0-.633.577.3.3 0 0 0-.017.333z" transform="translate(2.001 2.001)" style="fill:#303038"/>
</svg>
