<svg xmlns="http://www.w3.org/2000/svg" width="20" height="20" viewBox="0 0 20 20">
    <path d="M16.5 16.251a.248.248 0 0 1-.249.249H3.748a.248.248 0 0 1-.248-.249v-7.5a.248.248 0 0 1 .248-.251h3v.251A1.75 1.75 0 0 0 8.5 10.5h3a1.75 1.75 0 0 0 1.75-1.749V8.5h3a.248.248 0 0 1 .249.249zM5.415 3.5h9.17a.267.267 0 0 1 .211.1L15.931 7H12.5a.75.75 0 0 0-.75.75v1a.248.248 0 0 1-.25.25h-3a.248.248 0 0 1-.248-.249v-1A.75.75 0 0 0 7.5 7H4.068l1.117-3.348a.253.253 0 0 1 .23-.152zm12.511 4.772a.362.362 0 0 0-.006-.046L16.2 3.074A1.744 1.744 0 0 0 14.585 2h-9.17a1.761 1.761 0 0 0-1.633 1.126l-1.7 5.1a.362.362 0 0 0-.006.046A1.754 1.754 0 0 0 2 8.749v7.5A1.75 1.75 0 0 0 3.748 18h12.5A1.75 1.75 0 0 0 18 16.251v-7.5a1.754 1.754 0 0 0-.074-.477z" style="fill:#303038"/>
</svg>
