<svg xmlns="http://www.w3.org/2000/svg" width="20" height="20" viewBox="0 0 20 20">
    <path d="M13.25 12.75h-6.5a.75.75 0 0 0 0 1.5h6.5a.75.75 0 1 0 0-1.5zm0-3.5h-6.5a.75.75 0 0 0 0 1.5h6.5a.75.75 0 1 0 0-1.5zm0-3.5h-6.5a.75.75 0 0 0 0 1.5h6.5a.75.75 0 1 0 0-1.5zm2.75 11a.25.25 0 0 1-.25.25H4.25a.25.25 0 0 1-.25-.25V3.25A.25.25 0 0 1 4.25 3h11.5a.25.25 0 0 1 .25.25zM15.75 1.5H4.25A1.752 1.752 0 0 0 2.5 3.25v13.5a1.752 1.752 0 0 0 1.75 1.75h11.5a1.752 1.752 0 0 0 1.75-1.75V3.25a1.752 1.752 0 0 0-1.75-1.75z" transform="translate(.5 .5)" style="fill:#303038"/>
</svg>
