<svg xmlns="http://www.w3.org/2000/svg" width="24" height="24" viewBox="0 0 24 24">
    <path d="m12.9 13.323-2.367 2.357a1.034 1.034 0 1 0 1.462 1.462l4.117-4.117a1.064 1.064 0 0 0 0-1.462l-4.117-4.118a1.034 1.034 0 1 0-1.462 1.462l2.367 2.357H3.029a1.029 1.029 0 1 0 0 2.059zM12.293 2a10.293 10.293 0 0 0-9.264 5.713 1.036 1.036 0 1 0 1.853.926 8.277 8.277 0 1 1 .041 7.308 1.036 1.036 0 0 0-1.853.926A10.293 10.293 0 0 0 15.4 22.1a10.465 10.465 0 0 0 6.776-6.951 9.842 9.842 0 0 0 .283-4.433A10.293 10.293 0 0 0 12.293 2z" transform="translate(-.293 -.212)" style="fill:#fff"/>
</svg>
