<svg xmlns="http://www.w3.org/2000/svg" width="220.318" height="13.188" viewBox="0 0 220.318 13.188">
    <path d="M7.683 3.21a1.2 1.2 0 0 1 .66.189 1.6 1.6 0 0 1 .541.625l6.177 12.2h-2.234l-1.642-3.264h-6.97l-1.642 3.263H.34l6.177-12.2a1.6 1.6 0 0 1 .541-.625 1.184 1.184 0 0 1 .625-.188zm2.624 8L7.7 6.018l-2.61 5.194z" transform="translate(-.34 -3.21)" style="fill:#fff"/>
    <path d="M32.53 16.269V3.31h2.064v12.959z" transform="translate(-16.56 -3.26)" style="fill:#fff"/>
    <path d="M51.614 3.31v1.761h-6.985q-1.927 0-1.93 1.454V7.4q0 1.436 1.91 1.439h3.756a4.142 4.142 0 0 1 2.843.848 2.888 2.888 0 0 1 1.017 2.282v1.2a2.857 2.857 0 0 1-1.017 2.267 4.244 4.244 0 0 1-2.858.829h-7.209v-1.758h7.1q1.927 0 1.93-1.439v-1.031c0-.972-.645-1.454-1.93-1.454H44.49a4.218 4.218 0 0 1-2.843-.829 2.886 2.886 0 0 1-1-2.267V6.441a2.9 2.9 0 0 1 1-2.282 4.142 4.142 0 0 1 2.843-.849z" transform="translate(-20.651 -3.26)" style="fill:#fff"/>
    <g>
        <path d="M10.153 4.62H2.29V3.364h7.868V4.62zm-3.931 5.531A3.724 3.724 0 0 1 3.795 9.4a2.2 2.2 0 0 1 0-3.6 3.748 3.748 0 0 1 2.427-.755 3.748 3.748 0 0 1 2.426.755 2.2 2.2 0 0 1 0 3.6 3.756 3.756 0 0 1-2.426.751zm.6 2.894h6.8v1.346H6.4q-2.341 0-2.341-2.178v-1.4H5.81v1.2a.906.906 0 0 0 1.012 1.032zM4.2 1.64h4.037v1.269H4.2zm2.022 7.28A1.878 1.878 0 0 0 7.4 8.539a1.155 1.155 0 0 0 0-1.887 1.869 1.869 0 0 0-1.179-.382 1.878 1.878 0 0 0-1.179.382 1.135 1.135 0 0 0-.489.935 1.159 1.159 0 0 0 .489.952 1.869 1.869 0 0 0 1.18.381zm7.34-3.846h1.814v1.377h-1.814v4.429h-1.741V1.859h1.741v3.215z" transform="translate(34.891 -1.64)" style="fill:#fff"/>
        <path d="M38.949 10.074a3.366 3.366 0 0 1-1.595-.7 2.2 2.2 0 0 1 .03-3.576 4.279 4.279 0 0 1 4.853 0 2.2 2.2 0 0 1 .03 3.576 3.472 3.472 0 0 1-1.565.7V11.4h1.947q2.63 0 2.633-2.032V1.859h1.741v4.21h1.814v1.389h-1.815v6.959h-1.741v-2.354a3.433 3.433 0 0 1-2.341.7h-7.37v-1.356h3.379zm4.767-5.454h-7.867V3.364h7.868zm-5.925-2.98h4.035v1.269h-4.035zm2.019 7.28a1.878 1.878 0 0 0 1.179-.382 1.159 1.159 0 0 0 .489-.952 1.146 1.146 0 0 0-.489-.935 2.012 2.012 0 0 0-2.358 0 1.146 1.146 0 0 0-.489.935 1.159 1.159 0 0 0 .489.952 1.852 1.852 0 0 0 1.179.382z" transform="translate(15.88 -1.64)" style="fill:#fff"/>
        <path d="M73.1 2.836a5.022 5.022 0 0 0 .9 3.361 3.036 3.036 0 0 0 1.724 1.025V8.6a5.176 5.176 0 0 1-2.881-1.346 3.642 3.642 0 0 1-.6-.716 3.642 3.642 0 0 1-.6.716A5.176 5.176 0 0 1 68.77 8.6V7.222A3.013 3.013 0 0 0 70.494 6.2a5.029 5.029 0 0 0 .9-3.361v-.51h1.7v.51zm7.443 9.184a2.741 2.741 0 0 1-1.123 2.18 4.95 4.95 0 0 1-5.754 0 2.74 2.74 0 0 1-1.132-2.178 2.678 2.678 0 0 1 1.132-2.157 5.046 5.046 0 0 1 5.754 0 2.685 2.685 0 0 1 1.128 2.155zm-4-1.741a2.527 2.527 0 0 0-1.638.51 1.532 1.532 0 0 0-.63 1.226 1.584 1.584 0 0 0 .622 1.243 2.839 2.839 0 0 0 3.284.009 1.573 1.573 0 0 0 .63-1.252 1.525 1.525 0 0 0-.635-1.226 2.555 2.555 0 0 0-1.633-.51zM79.3 2.15h1.711V8.8H79.3V5.94h-1.149V8.5H76.47V2.15h1.681v2.414H79.3z" transform="translate(-3.086 -1.931)" style="fill:#fff"/>
        <path d="M110.179 8.38h-4.974q-2.045 0-2.045-2.135V2.356h6.067a.847.847 0 0 1 .952.965v.236h2.573V2.15h1.741v6.77h-1.741V7.342h-2.573zm-1.711-4.695h-3.584v2.542c0 .545.249.819.746.819h2.838zm5.921 8.335a2.763 2.763 0 0 1-1.106 2.169 4.847 4.847 0 0 1-5.711 0 2.756 2.756 0 0 1-1.11-2.169 2.7 2.7 0 0 1 1.11-2.148 4.959 4.959 0 0 1 5.711 0 2.7 2.7 0 0 1 1.106 2.148zm-3.962-1.741a2.434 2.434 0 0 0-1.616.51 1.565 1.565 0 0 0-.609 1.226 1.614 1.614 0 0 0 .6 1.243 2.368 2.368 0 0 0 1.625.527 2.4 2.4 0 0 0 1.616-.519 1.6 1.6 0 0 0 .609-1.252 1.55 1.55 0 0 0-.613-1.226 2.453 2.453 0 0 0-1.612-.509zm-.248-5.379V6h2.573V4.9z" transform="translate(-22.731 -1.931)" style="fill:#fff"/>
        <path d="M134.74 8.265h5.514V6.8h1.784v1.465h5.527v1.377H134.74zm11.653-4.459h-4.137a3.985 3.985 0 0 0 1.432 1.432 5.321 5.321 0 0 0 2.894.716v1.3a8.045 8.045 0 0 1-3.906-.832 4.625 4.625 0 0 1-1.522-1.183 4.773 4.773 0 0 1-1.535 1.183 7.939 7.939 0 0 1-3.906.832v-1.3a5.321 5.321 0 0 0 2.894-.716 4.018 4.018 0 0 0 1.432-1.432h-4.125V2.49h10.47v1.316zm-.249 8.905a1.914 1.914 0 0 1-1.316 1.814 9.233 9.233 0 0 1-3.657.583 9.311 9.311 0 0 1-3.657-.583 1.908 1.908 0 0 1 0-3.627 11.761 11.761 0 0 1 7.314 0 1.914 1.914 0 0 1 1.317 1.813zm-4.986 1.068a8.995 8.995 0 0 0 2.32-.24c.57-.163.858-.433.858-.81s-.287-.669-.858-.832a10.822 10.822 0 0 0-4.613 0c-.575.167-.862.442-.862.832s.287.652.862.81a8.913 8.913 0 0 0 2.293.24z" transform="translate(-40.771 -2.126)" style="fill:#fff"/>
        <path d="M176.708 4.547h-7.868V3.3h7.868zm-7.383 2.62a1.868 1.868 0 0 1 .956-1.668 5.46 5.46 0 0 1 4.978 0 1.924 1.924 0 0 1 0 3.336 5.46 5.46 0 0 1-4.978 0 1.881 1.881 0 0 1-.957-1.668zm2.967 2.675v1.008h6.054V9.842h1.741v4.549h-7.443q-2.09 0-2.092-1.9V9.846h1.741zm-1.535-8.2h4.035V2.9h-4.035zm3.73 5.527a.869.869 0 0 0-.48-.806 2.547 2.547 0 0 0-1.227-.263 2.485 2.485 0 0 0-1.226.27.9.9 0 0 0 0 1.595 2.918 2.918 0 0 0 2.452 0 .869.869 0 0 0 .481-.798zm-2.2 4.956v.275c0 .459.24.686.716.686h5.338v-.965zm7.765-6.989h1.874v1.345h-1.874v2.808h-1.741v-7.43h1.741z" transform="translate(-60.25 -1.64)" style="fill:#fff"/>
        <path d="M207.275 6.227a4.26 4.26 0 0 0 1.346-2.542h-5V2.356h5.848c.75 0 1.093.45 1.025 1.346a5.362 5.362 0 0 1-2.165 3.906 8.712 8.712 0 0 1-5.029 1.711V7.99a6.491 6.491 0 0 0 3.975-1.763zm6.843 4.682v3.773h-7.443q-2.09 0-2.092-1.959V9.945h8.566a.854.854 0 0 1 .968.964zm-1.741.364h-6.054v1.359a.634.634 0 0 0 .716.716h5.338zm1.741-6.316h1.947v1.378h-1.947V9.3h-1.741V2.15h1.741z" transform="translate(-79.936 -1.931)" style="fill:#fff"/>
        <path d="M240.971 4.2a8.366 8.366 0 0 0 1.038 4.695 4.712 4.712 0 0 0 2.221 1.771v1.384a6 6 0 0 1-3.409-2.075 5.255 5.255 0 0 1-.716-1.11 5.43 5.43 0 0 1-.716 1.11 5.963 5.963 0 0 1-3.409 2.075v-1.389a4.587 4.587 0 0 0 2.22-1.771 8.365 8.365 0 0 0 1.039-4.69V2.339h1.724V4.2zm8.206 3.541H247.3v6.976h-1.741V2.15h1.741v4.18h1.874z" transform="translate(-98.604 -1.931)" style="fill:#fff"/>
        <path d="M273.837 6.373a3.807 3.807 0 0 1-.862.935 6.271 6.271 0 0 1-3.246 1.329V7.308a3.839 3.839 0 0 0 2.178-1.128 3.971 3.971 0 0 0 1.038-2.5h-2.924V2.352h7.632v1.329h-2.924a3.971 3.971 0 0 0 1.038 2.5 3.852 3.852 0 0 0 2.178 1.128v1.328a6.307 6.307 0 0 1-3.245-1.329 3.58 3.58 0 0 1-.863-.935zm7.529 5.647a2.763 2.763 0 0 1-1.106 2.169 4.847 4.847 0 0 1-5.711 0 2.756 2.756 0 0 1-1.11-2.169 2.7 2.7 0 0 1 1.11-2.148 4.959 4.959 0 0 1 5.711 0 2.7 2.7 0 0 1 1.106 2.148zm-3.966-1.741a2.434 2.434 0 0 0-1.616.51 1.565 1.565 0 0 0-.609 1.226 1.614 1.614 0 0 0 .6 1.243 2.368 2.368 0 0 0 1.625.527 2.4 2.4 0 0 0 1.616-.519 1.6 1.6 0 0 0 .609-1.252 1.55 1.55 0 0 0-.613-1.226 2.47 2.47 0 0 0-1.612-.509zm2.324-8.129h1.741v6.77h-1.741V5.953h-2.911V4.577h2.911z" transform="translate(-117.884 -1.931)" style="fill:#fff"/>
        <path d="M313.5 9.952h-3.949v2.457h5.527V13.8H302.25v-1.392h5.514V9.952h-1.972a1.978 1.978 0 0 1-2.238-2.238V2.83h1.741v2.221h6.461V2.83h1.744zm-1.74-1.36V6.4h-6.46v1.253a.833.833 0 0 0 .952.935h5.51z" transform="translate(-136.461 -2.32)" style="fill:#fff"/>
        <path d="M340.621 4.2a8.365 8.365 0 0 0 1.038 4.695 4.712 4.712 0 0 0 2.221 1.771v1.384a6 6 0 0 1-3.409-2.075 5.255 5.255 0 0 1-.716-1.11 5.254 5.254 0 0 1-.716 1.11 5.963 5.963 0 0 1-3.409 2.075v-1.389a4.587 4.587 0 0 0 2.221-1.771 8.366 8.366 0 0 0 1.037-4.69V2.339h1.724V4.2zm4.815 10.513V2.15h1.754v12.558z" transform="translate(-155.529 -1.931)" style="fill:#fff"/>
        <path d="M380.494 13.643H367.67v-1.419h12.824zm-5.527-10.4a5.38 5.38 0 0 0 1.522 4.157 5.113 5.113 0 0 0 3.173 1.419v1.346a7.068 7.068 0 0 1-4.283-1.565 5.155 5.155 0 0 1-1.286-1.5 5.357 5.357 0 0 1-1.3 1.5 7.068 7.068 0 0 1-4.283 1.565V8.82a5.08 5.08 0 0 0 3.169-1.42 5.383 5.383 0 0 0 1.521-4.154V2.56h1.771v.686z" transform="translate(-173.832 -2.166)" style="fill:#fff"/>
        <path d="M408.147 8v1.327h-3.816q-2.251 0-2.251-2.075v-5h5.441v1.33h-3.76v1.475h3.16v1.316h-3.16v.673a.829.829 0 0 0 .922.952zm5.66 3.246v3.434h-7.589q-2.09 0-2.092-1.887V10.3h8.717a.845.845 0 0 1 .963.944zm-1.741.394h-6.2v1.025c0 .459.24.686.716.686h5.484zm-2.689-9.49h1.681v7.529h-1.681V6.4H407.8V5.031h1.578zm2.718 0h1.711v7.529H412.1z" transform="translate(-193.488 -1.931)" style="fill:#fff"/>
    </g>
</svg>
